<svg width="544" height="132" viewBox="0 0 544 132" fill="none" xmlns="http://www.w3.org/2000/svg">
<rect width="544" height="132" fill="black"/>
<path d="M41 53V61.7125H64.7302V113.3L75.8501 102.753V61.7125H96.8289L106 53H41Z" fill="#F38E00"/>
<path d="M27.4293 23.36H56.7843C64.0676 23.36 69.7359 25.1333 73.7893 28.68C77.8426 32.1633 79.8693 36.945 79.8693 43.025C79.8693 49.105 77.8109 53.9183 73.6943 57.465C69.6409 61.0117 64.0043 62.785 56.7843 62.785H39.6843V91H27.4293V23.36ZM55.3593 53.285C59.6026 53.285 62.8009 52.43 64.9543 50.72C67.1709 48.9467 68.2793 46.4133 68.2793 43.12C68.2793 39.7633 67.2026 37.23 65.0493 35.52C62.8959 33.7467 59.6659 32.86 55.3593 32.86H39.6843V53.285H55.3593Z" fill="#FDB7C0"/>
<path d="M116.947 50.4H132.397C136.231 50.4 139.214 51.3333 141.347 53.2C143.481 55.0333 144.547 57.55 144.547 60.75C144.547 63.95 143.464 66.4833 141.297 68.35C139.164 70.2167 136.197 71.15 132.397 71.15H123.397V86H116.947V50.4ZM131.647 66.15C133.881 66.15 135.564 65.7 136.697 64.8C137.864 63.8667 138.447 62.5333 138.447 60.8C138.447 59.0333 137.881 57.7 136.747 56.8C135.614 55.8667 133.914 55.4 131.647 55.4H123.397V66.15H131.647Z" fill="#FDB7C0"/>
<path d="M273.763 55.7H262.163V50.4H291.913V55.7H280.263V86H273.763V55.7Z" fill="#F38E00"/>
<path d="M423.543 86.45C420.81 86.45 418.243 86.0833 415.843 85.35C413.477 84.6167 411.46 83.5667 409.793 82.2L411.993 77.5C413.727 78.8 415.527 79.7667 417.393 80.4C419.293 81 421.36 81.3 423.593 81.3C426.06 81.3 427.96 80.8667 429.293 80C430.66 79.1333 431.343 77.9167 431.343 76.35C431.343 75.0167 430.71 74 429.443 73.3C428.21 72.5667 426.16 71.8833 423.293 71.25C418.827 70.2833 415.577 69.0333 413.543 67.5C411.51 65.9667 410.493 63.7333 410.493 60.8C410.493 58.7 411.06 56.8333 412.193 55.2C413.327 53.5667 414.927 52.2833 416.993 51.35C419.093 50.4167 421.51 49.95 424.243 49.95C426.743 49.95 429.11 50.3333 431.343 51.1C433.61 51.8333 435.46 52.8667 436.893 54.2L434.743 58.9C431.577 56.3667 428.077 55.1 424.243 55.1C421.943 55.1 420.127 55.5833 418.793 56.55C417.46 57.4833 416.793 58.7667 416.793 60.4C416.793 61.8 417.377 62.8667 418.543 63.6C419.743 64.3333 421.777 65.0167 424.643 65.65C427.61 66.35 430.027 67.1167 431.893 67.95C433.76 68.75 435.193 69.8 436.193 71.1C437.193 72.3667 437.693 73.9667 437.693 75.9C437.693 78.0333 437.127 79.9 435.993 81.5C434.86 83.0667 433.227 84.2833 431.093 85.15C428.96 86.0167 426.443 86.45 423.543 86.45ZM474.971 50.4V86H468.571V70.55H450.321V86H443.971V50.4H450.321V65.3H468.571V50.4H474.971ZM482.992 50.4H489.442V86H482.992V50.4ZM497.452 50.4H512.902C516.735 50.4 519.718 51.3333 521.852 53.2C523.985 55.0333 525.052 57.55 525.052 60.75C525.052 63.95 523.968 66.4833 521.802 68.35C519.668 70.2167 516.702 71.15 512.902 71.15H503.902V86H497.452V50.4ZM512.152 66.15C514.385 66.15 516.068 65.7 517.202 64.8C518.368 63.8667 518.952 62.5333 518.952 60.8C518.952 59.0333 518.385 57.7 517.252 56.8C516.118 55.8667 514.418 55.4 512.152 55.4H503.902V66.15H512.152Z" fill="white"/>
<path d="M116.947 50.4V49.4H115.947V50.4H116.947ZM141.347 53.2L140.689 53.9526L140.696 53.9584L141.347 53.2ZM141.297 68.35L140.645 67.5924L140.639 67.5974L141.297 68.35ZM123.397 71.15V70.15H122.397V71.15H123.397ZM123.397 86V87H124.397V86H123.397ZM116.947 86H115.947V87H116.947V86ZM136.697 64.8L137.319 65.5831L137.322 65.5809L136.697 64.8ZM136.747 56.8L136.112 57.5719L136.119 57.5776L136.126 57.5831L136.747 56.8ZM123.397 55.4V54.4H122.397V55.4H123.397ZM123.397 66.15H122.397V67.15H123.397V66.15ZM116.947 51.4H132.397V49.4H116.947V51.4ZM132.397 51.4C136.075 51.4 138.794 52.2942 140.689 53.9526L142.006 52.4474C139.635 50.3725 136.387 49.4 132.397 49.4V51.4ZM140.696 53.9584C142.576 55.5744 143.547 57.7967 143.547 60.75H145.547C145.547 57.3033 144.385 54.4922 141.999 52.4416L140.696 53.9584ZM143.547 60.75C143.547 63.6977 142.563 65.9396 140.645 67.5924L141.95 69.1076C144.365 67.027 145.547 64.2023 145.547 60.75H143.547ZM140.639 67.5974C138.742 69.2571 136.039 70.15 132.397 70.15V72.15C136.356 72.15 139.586 71.1762 141.956 69.1026L140.639 67.5974ZM132.397 70.15H123.397V72.15H132.397V70.15ZM122.397 71.15V86H124.397V71.15H122.397ZM123.397 85H116.947V87H123.397V85ZM117.947 86V50.4H115.947V86H117.947ZM131.647 67.15C133.991 67.15 135.936 66.6818 137.319 65.5831L136.076 64.0169C135.192 64.7182 133.771 65.15 131.647 65.15V67.15ZM137.322 65.5809C138.766 64.4261 139.447 62.7825 139.447 60.8H137.447C137.447 62.2842 136.963 63.3073 136.073 64.0191L137.322 65.5809ZM139.447 60.8C139.447 58.8028 138.794 57.1485 137.369 56.0169L136.126 57.5831C136.967 58.2515 137.447 59.2639 137.447 60.8H139.447ZM137.383 56.0281C135.996 54.8858 134.026 54.4 131.647 54.4V56.4C133.802 56.4 135.232 56.8476 136.112 57.5719L137.383 56.0281ZM131.647 54.4H123.397V56.4H131.647V54.4ZM122.397 55.4V66.15H124.397V55.4H122.397ZM123.397 67.15H131.647V65.15H123.397V67.15ZM181.548 50.4H182.548V49.4H181.548V50.4ZM181.548 86V87H182.548V86H181.548ZM175.148 86H174.148V87H175.148V86ZM175.148 70.55H176.148V69.55H175.148V70.55ZM156.898 70.55V69.55H155.898V70.55H156.898ZM156.898 86V87H157.898V86H156.898ZM150.548 86H149.548V87H150.548V86ZM150.548 50.4V49.4H149.548V50.4H150.548ZM156.898 50.4H157.898V49.4H156.898V50.4ZM156.898 65.3H155.898V66.3H156.898V65.3ZM175.148 65.3V66.3H176.148V65.3H175.148ZM175.148 50.4V49.4H174.148V50.4H175.148ZM180.548 50.4V86H182.548V50.4H180.548ZM181.548 85H175.148V87H181.548V85ZM176.148 86V70.55H174.148V86H176.148ZM175.148 69.55H156.898V71.55H175.148V69.55ZM155.898 70.55V86H157.898V70.55H155.898ZM156.898 85H150.548V87H156.898V85ZM151.548 86V50.4H149.548V86H151.548ZM150.548 51.4H156.898V49.4H150.548V51.4ZM155.898 50.4V65.3H157.898V50.4H155.898ZM156.898 66.3H175.148V64.3H156.898V66.3ZM176.148 65.3V50.4H174.148V65.3H176.148ZM175.148 51.4H181.548V49.4H175.148V51.4ZM213.219 77.65L214.139 77.2587L213.88 76.65H213.219V77.65ZM195.819 77.65V76.65H195.161L194.901 77.2541L195.819 77.65ZM192.219 86V87H192.877L193.137 86.3959L192.219 86ZM185.719 86L184.808 85.5879L184.169 87H185.719V86ZM201.819 50.4V49.4H201.174L200.908 49.9879L201.819 50.4ZM207.069 50.4L207.98 49.9869L207.713 49.4H207.069V50.4ZM223.219 86V87H224.771L224.13 85.5869L223.219 86ZM216.769 86L215.849 86.3913L216.107 87H216.769V86ZM211.069 72.65V73.65H212.587L211.988 72.2554L211.069 72.65ZM204.519 57.4L205.438 57.0054L204.519 54.8661L203.6 57.0054L204.519 57.4ZM197.969 72.65L197.05 72.2554L196.451 73.65H197.969V72.65ZM213.219 76.65H195.819V78.65H213.219V76.65ZM194.901 77.2541L191.301 85.6041L193.137 86.3959L196.737 78.0459L194.901 77.2541ZM192.219 85H185.719V87H192.219V85ZM186.63 86.4121L202.73 50.8121L200.908 49.9879L184.808 85.5879L186.63 86.4121ZM201.819 51.4H207.069V49.4H201.819V51.4ZM206.158 50.8131L222.308 86.4131L224.13 85.5869L207.98 49.9869L206.158 50.8131ZM223.219 85H216.769V87H223.219V85ZM217.689 85.6087L214.139 77.2587L212.299 78.0413L215.849 86.3913L217.689 85.6087ZM211.988 72.2554L205.438 57.0054L203.6 57.7946L210.15 73.0446L211.988 72.2554ZM203.6 57.0054L197.05 72.2554L198.888 73.0446L205.438 57.7946L203.6 57.0054ZM197.969 73.65H211.069V71.65H197.969V73.65ZM257.369 50.4H258.369V49.4H257.369V50.4ZM257.369 86V87H258.369V86H257.369ZM252.569 86L251.776 86.6099L252.077 87H252.569V86ZM233.369 61.05L234.161 60.4401L232.369 58.1108V61.05H233.369ZM233.369 86V87H234.369V86H233.369ZM227.369 86H226.369V87H227.369V86ZM227.369 50.4V49.4H226.369V50.4H227.369ZM232.169 50.4L232.962 49.7904L232.661 49.4H232.169V50.4ZM251.319 75.3L250.526 75.9096L252.319 78.2406V75.3H251.319ZM251.319 50.4V49.4H250.319V50.4H251.319ZM256.369 50.4V86H258.369V50.4H256.369ZM257.369 85H252.569V87H257.369V85ZM253.361 85.3901L234.161 60.4401L232.576 61.6599L251.776 86.6099L253.361 85.3901ZM232.369 61.05V86H234.369V61.05H232.369ZM233.369 85H227.369V87H233.369V85ZM228.369 86V50.4H226.369V86H228.369ZM227.369 51.4H232.169V49.4H227.369V51.4ZM231.376 51.0096L250.526 75.9096L252.112 74.6904L232.962 49.7904L231.376 51.0096ZM252.319 75.3V50.4H250.319V75.3H252.319ZM251.319 51.4H257.369V49.4H251.319V51.4ZM273.763 55.7H274.763V54.7H273.763V55.7ZM262.163 55.7H261.163V56.7H262.163V55.7ZM262.163 50.4V49.4H261.163V50.4H262.163ZM291.913 50.4H292.913V49.4H291.913V50.4ZM291.913 55.7V56.7H292.913V55.7H291.913ZM280.263 55.7V54.7H279.263V55.7H280.263ZM280.263 86V87H281.263V86H280.263ZM273.763 86H272.763V87H273.763V86ZM273.763 54.7H262.163V56.7H273.763V54.7ZM263.163 55.7V50.4H261.163V55.7H263.163ZM262.163 51.4H291.913V49.4H262.163V51.4ZM290.913 50.4V55.7H292.913V50.4H290.913ZM291.913 54.7H280.263V56.7H291.913V54.7ZM279.263 55.7V86H281.263V55.7H279.263ZM280.263 85H273.763V87H280.263V85ZM274.763 86V55.7H272.763V86H274.763ZM327.67 50.4H328.67V49.4H327.67V50.4ZM327.67 86V87H328.67V86H327.67ZM321.27 86H320.27V87H321.27V86ZM321.27 70.55H322.27V69.55H321.27V70.55ZM303.02 70.55V69.55H302.02V70.55H303.02ZM303.02 86V87H304.02V86H303.02ZM296.67 86H295.67V87H296.67V86ZM296.67 50.4V49.4H295.67V50.4H296.67ZM303.02 50.4H304.02V49.4H303.02V50.4ZM303.02 65.3H302.02V66.3H303.02V65.3ZM321.27 65.3V66.3H322.27V65.3H321.27ZM321.27 50.4V49.4H320.27V50.4H321.27ZM326.67 50.4V86H328.67V50.4H326.67ZM327.67 85H321.27V87H327.67V85ZM322.27 86V70.55H320.27V86H322.27ZM321.27 69.55H303.02V71.55H321.27V69.55ZM302.02 70.55V86H304.02V70.55H302.02ZM303.02 85H296.67V87H303.02V85ZM297.67 86V50.4H295.67V86H297.67ZM296.67 51.4H303.02V49.4H296.67V51.4ZM302.02 50.4V65.3H304.02V50.4H302.02ZM303.02 66.3H321.27V64.3H303.02V66.3ZM322.27 65.3V50.4H320.27V65.3H322.27ZM321.27 51.4H327.67V49.4H321.27V51.4ZM335.691 50.4V49.4H334.691V50.4H335.691ZM342.141 50.4H343.141V49.4H342.141V50.4ZM342.141 86V87H343.141V86H342.141ZM335.691 86H334.691V87H335.691V86ZM335.691 51.4H342.141V49.4H335.691V51.4ZM341.141 50.4V86H343.141V50.4H341.141ZM342.141 85H335.691V87H342.141V85ZM336.691 86V50.4H334.691V86H336.691ZM350.151 50.4V49.4H349.151V50.4H350.151ZM373.951 50.4H374.951V49.4H373.951V50.4ZM373.951 55.5V56.5H374.951V55.5H373.951ZM356.451 55.5V54.5H355.451V55.5H356.451ZM356.451 65.35H355.451V66.35H356.451V65.35ZM372.901 65.35H373.901V64.35H372.901V65.35ZM372.901 70.45V71.45H373.901V70.45H372.901ZM356.451 70.45V69.45H355.451V70.45H356.451ZM356.451 80.9H355.451V81.9H356.451V80.9ZM373.951 80.9H374.951V79.9H373.951V80.9ZM373.951 86V87H374.951V86H373.951ZM350.151 86H349.151V87H350.151V86ZM350.151 51.4H373.951V49.4H350.151V51.4ZM372.951 50.4V55.5H374.951V50.4H372.951ZM373.951 54.5H356.451V56.5H373.951V54.5ZM355.451 55.5V65.35H357.451V55.5H355.451ZM356.451 66.35H372.901V64.35H356.451V66.35ZM371.901 65.35V70.45H373.901V65.35H371.901ZM372.901 69.45H356.451V71.45H372.901V69.45ZM355.451 70.45V80.9H357.451V70.45H355.451ZM356.451 81.9H373.951V79.9H356.451V81.9ZM372.951 80.9V86H374.951V80.9H372.951ZM373.951 85H350.151V87H373.951V85ZM351.151 86V50.4H349.151V86H351.151ZM388.586 55.7H389.586V54.7H388.586V55.7ZM376.986 55.7H375.986V56.7H376.986V55.7ZM376.986 50.4V49.4H375.986V50.4H376.986ZM406.736 50.4H407.736V49.4H406.736V50.4ZM406.736 55.7V56.7H407.736V55.7H406.736ZM395.086 55.7V54.7H394.086V55.7H395.086ZM395.086 86V87H396.086V86H395.086ZM388.586 86H387.586V87H388.586V86ZM388.586 54.7H376.986V56.7H388.586V54.7ZM377.986 55.7V50.4H375.986V55.7H377.986ZM376.986 51.4H406.736V49.4H376.986V51.4ZM405.736 50.4V55.7H407.736V50.4H405.736ZM406.736 54.7H395.086V56.7H406.736V54.7ZM394.086 55.7V86H396.086V55.7H394.086ZM395.086 85H388.586V87H395.086V85ZM389.586 86V55.7H387.586V86H389.586ZM415.843 85.35L415.547 86.3052L415.551 86.3064L415.843 85.35ZM409.793 82.2L408.887 81.7761L408.558 82.4803L409.159 82.9733L409.793 82.2ZM411.993 77.5L412.593 76.7L411.609 75.9619L411.087 77.0761L411.993 77.5ZM417.393 80.4L417.072 81.347L417.082 81.3504L417.092 81.3536L417.393 80.4ZM429.293 80L428.758 79.1554L428.748 79.1616L429.293 80ZM429.443 73.3L428.932 74.1595L428.946 74.1676L428.96 74.1752L429.443 73.3ZM423.293 71.25L423.509 70.2735L423.505 70.2726L423.293 71.25ZM413.543 67.5L414.145 66.7016L414.145 66.7016L413.543 67.5ZM412.193 55.2L411.372 54.6299L411.372 54.6299L412.193 55.2ZM416.993 51.35L416.587 50.4362L416.582 50.4386L416.993 51.35ZM431.343 51.1L431.019 52.0458L431.027 52.0487L431.035 52.0514L431.343 51.1ZM436.893 54.2L437.803 54.616L438.103 53.9595L437.574 53.4678L436.893 54.2ZM434.743 58.9L434.118 59.6809L435.119 60.4816L435.653 59.316L434.743 58.9ZM418.793 56.55L419.367 57.3692L419.373 57.3645L419.38 57.3596L418.793 56.55ZM418.543 63.6L418.011 64.4467L418.022 64.4533L418.543 63.6ZM424.643 65.65L424.873 64.6767L424.866 64.6751L424.859 64.6735L424.643 65.65ZM431.893 67.95L431.486 68.8631L431.492 68.8662L431.499 68.8691L431.893 67.95ZM436.193 71.1L435.401 71.7098L435.408 71.7196L436.193 71.1ZM435.993 81.5L436.803 82.0861L436.809 82.078L435.993 81.5ZM431.093 85.15L430.717 84.2235L430.717 84.2235L431.093 85.15ZM423.543 85.45C420.9 85.45 418.433 85.0956 416.135 84.3936L415.551 86.3064C418.054 87.0711 420.72 87.45 423.543 87.45V85.45ZM416.139 84.3948C413.878 83.694 411.98 82.7002 410.427 81.4267L409.159 82.9733C410.939 84.4332 413.075 85.5393 415.547 86.3052L416.139 84.3948ZM410.699 82.6239L412.899 77.9239L411.087 77.0761L408.887 81.7761L410.699 82.6239ZM411.393 78.3C413.203 79.6572 415.096 80.6765 417.072 81.347L417.714 79.453C415.957 78.8568 414.25 77.9428 412.593 76.7L411.393 78.3ZM417.092 81.3536C419.1 81.9878 421.27 82.3 423.593 82.3V80.3C421.45 80.3 419.486 80.0122 417.694 79.4464L417.092 81.3536ZM423.593 82.3C426.155 82.3 428.276 81.8538 429.838 80.8384L428.748 79.1616C427.644 79.8796 425.965 80.3 423.593 80.3V82.3ZM429.829 80.8445C431.473 79.8018 432.343 78.2726 432.343 76.35H430.343C430.343 77.5607 429.847 78.4649 428.758 79.1555L429.829 80.8445ZM432.343 76.35C432.343 74.6161 431.479 73.2823 429.927 72.4248L428.96 74.1752C429.941 74.7177 430.343 75.4173 430.343 76.35H432.343ZM429.954 72.4405C428.576 71.6211 426.394 70.911 423.509 70.2735L423.077 72.2265C425.925 72.8556 427.843 73.5122 428.932 74.1595L429.954 72.4405ZM423.505 70.2726C419.085 69.316 416.005 68.1037 414.145 66.7016L412.941 68.2984C415.148 69.963 418.568 71.2506 423.082 72.2274L423.505 70.2726ZM414.145 66.7016C412.403 65.3876 411.493 63.4737 411.493 60.8H409.493C409.493 63.993 410.617 66.5457 412.941 68.2984L414.145 66.7016ZM411.493 60.8C411.493 58.8916 412.004 57.2263 413.015 55.7701L411.372 54.6299C410.115 56.4404 409.493 58.5084 409.493 60.8H411.493ZM413.015 55.7701C414.031 54.3055 415.479 53.1309 417.405 52.2614L416.582 50.4386C414.374 51.4358 412.622 52.8278 411.372 54.6299L413.015 55.7701ZM417.399 52.2638C419.35 51.397 421.624 50.95 424.243 50.95V48.95C421.396 48.95 418.837 49.4363 416.587 50.4362L417.399 52.2638ZM424.243 50.95C426.639 50.95 428.896 51.3171 431.019 52.0458L431.668 50.1542C429.324 49.3496 426.847 48.95 424.243 48.95V50.95ZM431.035 52.0514C433.193 52.7494 434.906 53.7175 436.212 54.9322L437.574 53.4678C436.013 52.0158 434.027 50.9173 431.651 50.1486L431.035 52.0514ZM435.984 53.784L433.834 58.484L435.653 59.316L437.803 54.616L435.984 53.784ZM435.368 58.1191C432.035 55.4528 428.317 54.1 424.243 54.1V56.1C427.836 56.1 431.118 57.2805 434.118 59.6809L435.368 58.1191ZM424.243 54.1C421.814 54.1 419.766 54.6095 418.206 55.7404L419.38 57.3596C420.487 56.5571 422.073 56.1 424.243 56.1V54.1ZM418.22 55.7308C416.618 56.852 415.793 58.4417 415.793 60.4H417.793C417.793 59.0916 418.302 58.1146 419.367 57.3692L418.22 55.7308ZM415.793 60.4C415.793 62.1372 416.548 63.5268 418.011 64.4466L419.075 62.7534C418.205 62.2066 417.793 61.4628 417.793 60.4H415.793ZM418.022 64.4533C419.372 65.2784 421.544 65.9894 424.427 66.6265L424.859 64.6735C422.009 64.0439 420.114 63.3882 419.065 62.7467L418.022 64.4533ZM424.414 66.6233C427.346 67.3151 429.697 68.0645 431.486 68.8631L432.301 67.0369C430.356 66.1688 427.874 65.3849 424.873 64.6767L424.414 66.6233ZM431.499 68.8691C433.246 69.6176 434.527 70.5739 435.401 71.7097L436.986 70.4903C435.859 69.0261 434.274 67.8824 432.287 67.0309L431.499 68.8691ZM435.408 71.7196C436.243 72.7768 436.693 74.1454 436.693 75.9H438.693C438.693 73.7879 438.144 71.9566 436.978 70.4804L435.408 71.7196ZM436.693 75.9C436.693 77.8454 436.18 79.506 435.177 80.922L436.809 82.078C438.073 80.294 438.693 78.2212 438.693 75.9H436.693ZM435.183 80.9139C434.179 82.3018 432.71 83.4138 430.717 84.2235L431.47 86.0765C433.743 85.1529 435.541 83.8315 436.803 82.0861L435.183 80.9139ZM430.717 84.2235C428.73 85.0308 426.346 85.45 423.543 85.45V87.45C426.54 87.45 429.19 87.0025 431.47 86.0765L430.717 84.2235ZM474.971 50.4H475.971V49.4H474.971V50.4ZM474.971 86V87H475.971V86H474.971ZM468.571 86H467.571V87H468.571V86ZM468.571 70.55H469.571V69.55H468.571V70.55ZM450.321 70.55V69.55H449.321V70.55H450.321ZM450.321 86V87H451.321V86H450.321ZM443.971 86H442.971V87H443.971V86ZM443.971 50.4V49.4H442.971V50.4H443.971ZM450.321 50.4H451.321V49.4H450.321V50.4ZM450.321 65.3H449.321V66.3H450.321V65.3ZM468.571 65.3V66.3H469.571V65.3H468.571ZM468.571 50.4V49.4H467.571V50.4H468.571ZM473.971 50.4V86H475.971V50.4H473.971ZM474.971 85H468.571V87H474.971V85ZM469.571 86V70.55H467.571V86H469.571ZM468.571 69.55H450.321V71.55H468.571V69.55ZM449.321 70.55V86H451.321V70.55H449.321ZM450.321 85H443.971V87H450.321V85ZM444.971 86V50.4H442.971V86H444.971ZM443.971 51.4H450.321V49.4H443.971V51.4ZM449.321 50.4V65.3H451.321V50.4H449.321ZM450.321 66.3H468.571V64.3H450.321V66.3ZM469.571 65.3V50.4H467.571V65.3H469.571ZM468.571 51.4H474.971V49.4H468.571V51.4ZM482.992 50.4V49.4H481.992V50.4H482.992ZM489.442 50.4H490.442V49.4H489.442V50.4ZM489.442 86V87H490.442V86H489.442ZM482.992 86H481.992V87H482.992V86ZM482.992 51.4H489.442V49.4H482.992V51.4ZM488.442 50.4V86H490.442V50.4H488.442ZM489.442 85H482.992V87H489.442V85ZM483.992 86V50.4H481.992V86H483.992ZM497.452 50.4V49.4H496.452V50.4H497.452ZM521.852 53.2L521.193 53.9526L521.2 53.9584L521.852 53.2ZM521.802 68.35L521.149 67.5924L521.143 67.5974L521.802 68.35ZM503.902 71.15V70.15H502.902V71.15H503.902ZM503.902 86V87H504.902V86H503.902ZM497.452 86H496.452V87H497.452V86ZM517.202 64.8L517.824 65.5831L517.826 65.5809L517.202 64.8ZM517.252 56.8L516.616 57.5719L516.623 57.5776L516.63 57.5831L517.252 56.8ZM503.902 55.4V54.4H502.902V55.4H503.902ZM503.902 66.15H502.902V67.15H503.902V66.15ZM497.452 51.4H512.902V49.4H497.452V51.4ZM512.902 51.4C516.579 51.4 519.298 52.2942 521.193 53.9526L522.51 52.4474C520.139 50.3725 516.891 49.4 512.902 49.4V51.4ZM521.2 53.9584C523.08 55.5744 524.052 57.7967 524.052 60.75H526.052C526.052 57.3033 524.89 54.4922 522.504 52.4416L521.2 53.9584ZM524.052 60.75C524.052 63.6977 523.067 65.9396 521.149 67.5924L522.454 69.1076C524.869 67.027 526.052 64.2023 526.052 60.75H524.052ZM521.143 67.5974C519.246 69.2571 516.543 70.15 512.902 70.15V72.15C516.861 72.15 520.09 71.1762 522.46 69.1026L521.143 67.5974ZM512.902 70.15H503.902V72.15H512.902V70.15ZM502.902 71.15V86H504.902V71.15H502.902ZM503.902 85H497.452V87H503.902V85ZM498.452 86V50.4H496.452V86H498.452ZM512.152 67.15C514.495 67.15 516.44 66.6818 517.824 65.5831L516.58 64.0169C515.697 64.7182 514.275 65.15 512.152 65.15V67.15ZM517.826 65.5809C519.27 64.4261 519.952 62.7825 519.952 60.8H517.952C517.952 62.2842 517.467 63.3073 516.577 64.0191L517.826 65.5809ZM519.952 60.8C519.952 58.8028 519.299 57.1485 517.874 56.0169L516.63 57.5831C517.471 58.2515 517.952 59.2639 517.952 60.8H519.952ZM517.887 56.0281C516.5 54.8858 514.53 54.4 512.152 54.4V56.4C514.306 56.4 515.736 56.8476 516.616 57.5719L517.887 56.0281ZM512.152 54.4H503.902V56.4H512.152V54.4ZM502.902 55.4V66.15H504.902V55.4H502.902ZM503.902 67.15H512.152V65.15H503.902V67.15Z" fill="white"/>
</svg>
