<svg width="256" height="132" viewBox="0 0 256 132" fill="none" xmlns="http://www.w3.org/2000/svg">
<rect width="256" height="132" fill="black"/>
<path d="M41 53V61.7125H64.7302V113.3L75.8501 102.753V61.7125H96.8289L106 53H41Z" fill="#F38E00"/>
<path d="M27.4293 23.36H56.7843C64.0676 23.36 69.7359 25.1333 73.7893 28.68C77.8426 32.1633 79.8693 36.945 79.8693 43.025C79.8693 49.105 77.8109 53.9183 73.6943 57.465C69.6409 61.0117 64.0043 62.785 56.7843 62.785H39.6843V91H27.4293V23.36ZM55.3593 53.285C59.6026 53.285 62.8009 52.43 64.9543 50.72C67.1709 48.9467 68.2793 46.4133 68.2793 43.12C68.2793 39.7633 67.2026 37.23 65.0493 35.52C62.8959 33.7467 59.6659 32.86 55.3593 32.86H39.6843V53.285H55.3593Z" fill="#FDB7C0"/>
<path d="M131.27 83.45C128.537 83.45 125.97 83.0833 123.57 82.35C121.204 81.6167 119.187 80.5667 117.52 79.2L119.72 74.5C121.454 75.8 123.254 76.7667 125.12 77.4C127.02 78 129.087 78.3 131.32 78.3C133.787 78.3 135.687 77.8667 137.02 77C138.387 76.1333 139.07 74.9167 139.07 73.35C139.07 72.0167 138.437 71 137.17 70.3C135.937 69.5667 133.887 68.8833 131.02 68.25C126.554 67.2833 123.304 66.0333 121.27 64.5C119.237 62.9667 118.22 60.7333 118.22 57.8C118.22 55.7 118.787 53.8333 119.92 52.2C121.054 50.5667 122.654 49.2833 124.72 48.35C126.82 47.4167 129.237 46.95 131.97 46.95C134.47 46.95 136.837 47.3333 139.07 48.1C141.337 48.8333 143.187 49.8667 144.62 51.2L142.47 55.9C139.304 53.3667 135.804 52.1 131.97 52.1C129.67 52.1 127.854 52.5833 126.52 53.55C125.187 54.4833 124.52 55.7667 124.52 57.4C124.52 58.8 125.104 59.8667 126.27 60.6C127.47 61.3333 129.504 62.0167 132.37 62.65C135.337 63.35 137.754 64.1167 139.62 64.95C141.487 65.75 142.92 66.8 143.92 68.1C144.92 69.3667 145.42 70.9667 145.42 72.9C145.42 75.0333 144.854 76.9 143.72 78.5C142.587 80.0667 140.954 81.2833 138.82 82.15C136.687 83.0167 134.17 83.45 131.27 83.45ZM182.698 47.4V83H176.298V67.55H158.048V83H151.698V47.4H158.048V62.3H176.298V47.4H182.698ZM190.719 47.4H197.169V83H190.719V47.4ZM205.179 47.4H220.629C224.462 47.4 227.446 48.3333 229.579 50.2C231.712 52.0333 232.779 54.55 232.779 57.75C232.779 60.95 231.696 63.4833 229.529 65.35C227.396 67.2167 224.429 68.15 220.629 68.15H211.629V83H205.179V47.4ZM219.879 63.15C222.112 63.15 223.796 62.7 224.929 61.8C226.096 60.8667 226.679 59.5333 226.679 57.8C226.679 56.0333 226.112 54.7 224.979 53.8C223.846 52.8667 222.146 52.4 219.879 52.4H211.629V63.15H219.879Z" fill="white"/>
</svg>
